TODO :

- ajouter détection automatique du fichier (taille, durée, format...)
- ajouter connexion à api tmdb ou musicbrainz pour mieux faire les métadonnées
- petite mise en forme pas piqué des hannetons

# Exemple NFO Musique :

```
---------------------------------------------------------------------
                          Renaud - Métèque
---------------------------------------------------------------------

Artist...............: Renaud
Album................: Métèque
Genre................: Chanson française
Year.................: 2022
Ripper...............: EAC (Secure mode) / LAME 3.92 & Asus CD-S520
Codec................: Free Lossless Audio Codec (FLAC)
Version..............: Mutagen 1.45.1
Quality..............: Lossless, (avg. compression: 58 %)
Channels.............: Stereo / 44100 HZ / 16 Bit
Tags.................: VorbisComment
Information..........: 

Posted by............: lotsid on 06.05.2022
News Server..........: news.astraweb.com
News Group(s)........: alt.binaries.sounds.mp3.m

Included.............: NFO


---------------------------------------------------------------------
                       Tracklisting
---------------------------------------------------------------------

   1. Renaud - Le Métèque                                     [03:19]
   2. Renaud - L’amitié                                       [02:33]
   3. Renaud - Ça va ça vient                                 [02:07]
   4. Renaud - Le temps des cerises                           [02:55]
   5. Renaud - Nuit et brouillard                             [03:12]
   6. Renaud - Si tu me payes un verre                        [02:44]
   7. Renaud - La tendresse                                   [03:05]
   8. Renaud - Hollywood                                      [04:04]
   9. Renaud - Bonhomme                                       [03:01]
  10. Renaud - La folle complainte                            [02:21]
  11. Renaud - Le jour où le bateau viendra                   [03:44]
  12. Renaud - La complainte de Mandrin                       [03:42]
  13. Renaud - Je suis mort qui, qui dit mieux                [05:28]

Playing Time.........: 42:22
Total Size...........: 247.84 MB
```

```
Yes
Fragile (1971)
FLAC LOSSLESS 24bit-96kHz
PBTHAL Vinyl


allmusic.com...

Fragile was Yes' breakthrough album, propelling them in a matter of weeks from a cult act to an international phenomenon; not coincidentally, it also marked the point where all of the elements of the music (and more) that would define their success for more than a decade fell into place fully formed. The science-fiction and fantasy elements that had driven the more successful songs on their preceding record, The Yes Album, were pushed much harder here, and not just in the music but in the packaging of the album. If not exactly their peak, Fragile was as perfect a record as the group would ever make, and just as flawless in its timing as its content. 


foobar2000 1.4.3 / Dynamic Range Meter 1.1.1
log date: 2020-11-05 14:04:26

--------------------------------------------------------------------------------
Analyzed: Yes / Fragile
--------------------------------------------------------------------------------

DR         Peak         RMS     Duration Track
--------------------------------------------------------------------------------
DR12      -1.00 dB   -15.66 dB      8:36 01-Roundabout
DR12      -2.55 dB   -17.91 dB      1:41 02-Cans And Brahms
DR10      -2.53 dB   -15.00 dB      1:29 03-We Have Heaven
DR12      -1.87 dB   -16.66 dB      8:07 04-South Side Of The Sky
DR13      -3.29 dB   -18.02 dB      0:36 05-Five Per Cent For Nothing
DR13      -1.31 dB   -17.49 dB      3:31 06-Long Distance Runaround
DR13      -1.00 dB   -17.40 dB      2:41 07-The Fish (Shindleria Praematurus)
DR13      -6.42 dB   -23.94 dB      3:01 08-Mood For A Day
DR12      -2.46 dB   -18.01 dB     11:23 09-Heart Of The Sunrise


Number of tracks:  9
Official DR value: DR12

Samplerate:        96000 Hz
Channels:          2
Bits per sample:   24
Bitrate:           2949 kbps
Codec:             FLAC




Support the artists...
buy it if you like it!

Thanks for Seeding!
Cheers! ;)
```

# Exemple NFO films

```
Die Hard (1988) Hybrid MULTi VFI 2160p 10bit 4KLight DV HDR10Plus BluRay DTS-HD MA 5.1 x265-QTZ


GENERAL
Source                                   : Die.Hard.1988.MULTI.VFI.4K.UHD.BluRay.REMUX.CUSTOM.HEVC.HDR.HDR10Plus.DTS-HD.MA.5.1-HDForever
Format                                   : Matroska
File size                                : 8.94 GiB
Duration                                 : 2 h 12 min

VIDEO
Format                                   : HEVC
Width                                    : 3 840 pixels
Height                                   : 1 604 pixels
Frame rate                               : 23.976 (24000/1001) FPS
Display aspect ratio                     : 2.394
Format profile                           : Main 10@L5.1@High
Bitrate                                  : 5 185 kb/s
Bit depth                                : 10 bits
Color primaries                          : BT.2020
HDR format                               : Dolby Vision, Version 1.0, dvhe.08.06, BL+RPU, HDR10 compatible / SMPTE ST 2094 App 4, Version 1, HDR10+ Profile B compatible

AUDIO #1
Format                                   : DTS
Title                                    : FR VFI : DTS 5.1
Language                                 : French
Channel(s)                               : 6 channels
Bitrate                                  : 768 kb/s
Sampling rate                            : 48.0 kHz

AUDIO #2
Format                                   : DTS-HD Master Audio
Title                                    : ENG VO : DTS-HD MA 5.1
Language                                 : English
Channel(s)                               : 6 channels
Bitrate                                  : 3 672 kb/s
Sampling rate                            : 48.0 kHz

SUBTITLE #1
Format                                   : UTF-8
Title                                    : FR Forced : SRT
Language                                 : French
Forced                                   : Yes

SUBTITLE #2
Format                                   : UTF-8
Title                                    : FR Full : SRT
Language                                 : French
Forced                                   : No
```
